<?xml version="1.0" encoding="UTF-8" ?>
<!DOCTYPE svg PUBLIC "-//W3C//DTD SVG 1.1//EN" "http://www.w3.org/Graphics/SVG/1.1/DTD/svg11.dtd">
<svg width="750pt" height="750pt" viewBox="0 0 750 750" version="1.1" xmlns="http://www.w3.org/2000/svg">
<path fill="#ffffff" stroke="#ffffff" stroke-width="0.09375" opacity="1.00" d=" M 0.0 0.0 L 750.0 0.0 L 750.0 750.0 L 0.0 750.0 L 0.0 0.0 Z" />
<path fill="#1f2429" stroke="#1f2429" stroke-width="0.09375" opacity="1.00" d=" M 98.3 118.2 C 100.9 117.8 103.4 117.7 106.0 117.6 C 250.4 117.6 394.7 117.6 539.0 117.6 C 544.7 117.6 550.4 117.4 555.9 119.0 C 566.6 122.0 575.7 130.0 579.8 140.3 C 583.7 149.7 583.4 160.8 579.0 170.0 C 573.1 182.9 559.2 191.5 545.0 191.0 C 398.7 191.0 252.3 191.0 106.0 191.0 C 91.3 191.5 76.8 182.2 71.3 168.5 C 67.5 159.4 67.5 148.7 71.5 139.6 C 76.2 128.6 86.6 120.4 98.3 118.2 Z" />
<path fill="#3b7859" stroke="#3b7859" stroke-width="0.09375" opacity="1.00" d=" M 97.4 228.6 C 100.9 227.8 104.5 227.8 108.0 227.7 C 177.3 227.7 246.7 227.7 316.0 227.7 C 321.6 227.7 327.3 227.5 332.8 228.5 C 344.6 230.9 355.0 239.3 359.5 250.6 C 363.3 259.6 363.2 270.2 359.2 279.2 C 353.6 292.5 339.4 301.6 325.0 301.2 C 253.3 301.3 181.7 301.2 110.0 301.2 C 105.5 301.2 101.0 301.2 96.6 300.2 C 85.9 297.6 76.5 290.1 71.9 280.1 C 67.1 269.9 67.3 257.5 72.6 247.6 C 77.5 238.0 86.8 230.9 97.4 228.6 Z" />
<path fill="#c63b2b" stroke="#c63b2b" stroke-width="0.09375" opacity="1.00" d=" M 428.4 228.5 C 433.8 227.5 439.5 227.7 445.0 227.7 C 515.0 227.7 585.0 227.7 655.0 227.7 C 666.5 227.4 678.1 232.7 685.0 242.0 C 690.4 248.7 693.1 257.5 692.7 266.1 C 692.3 279.1 684.2 291.7 672.3 297.3 C 666.5 300.6 659.6 301.3 653.0 301.2 C 580.7 301.2 508.4 301.3 436.0 301.2 C 427.4 301.3 419.0 298.1 412.2 292.8 C 403.3 285.3 398.1 273.5 399.0 261.9 C 399.9 245.9 412.6 231.4 428.4 228.5 Z" />
<path fill="#1d424a" stroke="#1d424a" stroke-width="0.09375" opacity="1.00" d=" M 98.4 338.5 C 101.2 338.1 104.1 338.0 107.0 337.9 C 204.0 338.0 301.0 337.9 398.0 338.0 C 407.3 337.6 416.6 341.2 423.6 347.4 C 431.5 354.6 436.2 365.3 435.7 376.1 C 435.3 383.6 432.8 391.1 428.0 397.0 C 421.1 406.3 409.5 411.6 398.0 411.4 C 302.7 411.4 207.3 411.3 112.0 411.4 C 106.6 411.3 101.1 411.6 95.9 410.2 C 86.2 407.6 77.6 401.0 72.9 392.1 C 67.7 382.7 67.1 371.1 71.1 361.2 C 75.4 349.5 86.2 340.8 98.4 338.5 Z" />
<path fill="#83b877" stroke="#83b877" stroke-width="0.09375" opacity="1.00" d=" M 502.4 338.5 C 506.6 337.9 510.8 337.9 515.0 337.9 C 537.7 338.0 560.3 337.9 583.0 338.0 C 597.4 337.8 611.2 347.3 616.5 360.6 C 620.4 369.9 620.2 380.8 616.0 390.0 C 610.2 402.6 596.9 411.4 583.0 411.3 C 558.0 411.3 533.0 411.4 508.0 411.3 C 489.0 411.2 471.9 394.1 472.5 375.0 C 471.7 357.6 485.4 341.4 502.4 338.5 Z" />
<path fill="#c63b2b" stroke="#c63b2b" stroke-width="0.09375" opacity="1.00" d=" M 98.4 448.6 C 101.9 448.1 105.5 448.1 109.0 448.1 C 180.0 448.0 251.0 448.1 322.0 448.1 C 327.6 448.0 333.3 448.3 338.6 450.5 C 348.9 454.3 357.2 463.1 360.5 473.6 C 366.0 489.5 358.6 508.7 343.7 516.7 C 338.1 520.0 331.6 521.6 325.1 521.6 C 252.0 521.6 179.0 521.6 105.9 521.6 C 98.7 521.6 91.4 519.6 85.4 515.7 C 73.8 508.5 67.2 494.5 68.7 481.0 C 70.0 465.2 82.9 451.5 98.4 448.6 Z" />
<path fill="#3b7859" stroke="#3b7859" stroke-width="0.09375" opacity="1.00" d=" M 429.4 448.6 C 432.6 448.1 435.8 448.1 439.0 448.1 C 496.0 448.0 553.0 448.1 610.0 448.0 C 614.9 448.1 619.9 447.9 624.8 448.5 C 637.5 450.3 648.9 459.4 653.5 471.4 C 656.9 480.5 656.9 491.0 652.8 499.9 C 647.1 513.0 633.3 521.6 619.1 521.6 C 558.0 521.6 497.0 521.6 435.9 521.6 C 428.2 521.6 420.7 519.1 414.3 514.7 C 402.9 506.7 396.7 491.7 399.7 477.9 C 402.1 463.2 414.7 451.0 429.4 448.6 Z" />
<path fill="#1f2429" stroke="#1f2429" stroke-width="0.09375" opacity="1.00" d=" M 103.4 558.4 C 250.2 558.1 397.1 558.3 544.0 558.3 C 555.7 557.7 567.6 562.9 574.7 572.3 C 581.3 580.4 583.8 591.6 581.9 601.8 C 579.9 613.0 572.3 623.1 562.0 627.9 C 556.2 631.0 549.5 631.8 543.0 631.7 C 401.0 631.7 259.0 631.7 117.0 631.7 C 109.9 631.5 102.7 632.3 95.7 630.4 C 84.2 627.5 74.4 618.5 70.6 607.2 C 66.6 596.1 68.3 583.0 75.5 573.4 C 81.8 564.5 92.4 558.7 103.4 558.4 Z" />
</svg>
